<svg width="705" height="791" viewBox="0 0 705 791" fill="none" xmlns="http://www.w3.org/2000/svg">
<path opacity="0.139718" fill-rule="evenodd" clip-rule="evenodd" d="M1.07453 278.096C0.278957 280.776 0.00652107 305.791 0 338.561V341.151C0.0137667 408.61 1.09699 635.451 1.07598 641.07C0.949178 674.417 20.7884 709.422 70.5558 743.655C143.48 793.818 197.599 774.026 250.092 762.101C293.713 752.193 334.829 742.284 381 768C482.734 824.664 552.729 764.831 659.732 694.074C688.187 675.258 701.611 652.995 703.166 628.937C703.572 622.672 704.473 549.502 704.481 483.578V481.696C704.475 429.556 703.899 382.407 702.064 377.168C681.698 319.027 602.602 329.093 511.255 280.127C412.946 227.43 324.03 196.958 245.133 196.962C201.631 196.964 161.164 206.231 123.871 226.146C67.9662 255.999 14.8115 231.851 1.07453 278.096Z" fill="url(#paint0_linear_1_4840)"/>
<path fill-rule="evenodd" clip-rule="evenodd" d="M659.733 461.199C552.731 531.956 484.738 470.758 383.004 414.093C281.27 357.43 204.08 473.727 70.5563 381.881C-62.9684 290.033 18.9442 192.628 123.872 136.596C228.8 80.5636 358.742 108.824 511.256 190.578C661.189 270.948 766.735 390.442 659.733 461.199Z" fill="#C59FFF"/>
<path fill-rule="evenodd" clip-rule="evenodd" d="M241.283 297.197C241.485 300.386 245.734 302.61 245.734 302.61L442.314 411.835C442.314 411.835 447.934 415.394 454.703 411.835C461.974 408.013 611.814 320.034 611.814 320.034C611.814 320.034 617.994 317.197 618.43 312.129C618.442 312.345 618.456 312.561 618.456 312.793V320.804C618.456 326.224 611.814 329.271 611.814 329.271C611.814 329.271 461.974 412.338 454.703 416.16C447.934 419.719 442.314 416.16 442.314 416.16L245.734 306.936C245.734 306.936 241.264 304.603 241.264 301.29V298.206C241.267 298.128 241.27 297.265 241.275 296.654C241.278 296.945 241.281 297.171 241.283 297.197Z" fill="#DDDDFC"/>
<path fill-rule="evenodd" clip-rule="evenodd" d="M245.096 290.706L408.081 195.101C413.957 191.91 418.172 195.101 418.172 195.101L611.814 302.853C611.814 302.853 618.456 306.411 618.456 311.566C618.456 311.757 618.446 311.944 618.43 312.128C617.994 317.196 611.814 320.034 611.814 320.034C611.814 320.034 461.974 408.012 454.703 411.835C447.934 415.394 442.314 411.835 442.314 411.835L245.734 302.61C245.734 302.61 241.486 300.385 241.283 297.197C241.281 297.171 241.278 296.944 241.275 296.654C241.27 296.075 241.264 295.235 241.264 295.183C241.264 292.627 245.096 290.706 245.096 290.706Z" fill="#F6F6FF"/>
<path fill-rule="evenodd" clip-rule="evenodd" d="M625.935 303.516C626.104 303.416 626.265 303.311 626.421 303.202C630.695 300.202 629.992 293.655 629.992 293.655C629.992 293.655 629.999 129.846 629.602 121.893C629.234 114.487 623.142 111.735 623.142 111.735L423.637 2.60866C423.637 2.60866 419.446 0.285975 416.509 1.78172C416.485 1.79426 416.282 1.9099 416.023 2.05899C415.881 2.1412 415.723 2.23176 415.564 2.32233C415.564 2.32233 415.566 2.32233 415.566 2.32163C416.376 1.8054 417.983 1.03001 418.501 0.732538C418.76 0.583452 418.964 0.467805 418.987 0.455961C421.924 -1.04048 427.215 1.62566 427.215 1.62566L626.721 110.752C626.721 110.752 632.812 113.504 633.181 120.911C633.577 128.864 633.571 292.672 633.571 292.672C633.571 292.672 634.273 299.219 629.999 302.219C629.844 302.328 629.683 302.433 629.514 302.533C624.936 305.22 620.457 304.42 620.457 304.42H620.456C622.269 304.644 624.242 304.51 625.935 303.516Z" fill="#DDDDFC"/>
<path fill-rule="evenodd" clip-rule="evenodd" d="M414.711 2.81713C414.746 2.79692 415.149 2.56354 415.566 2.32249C415.723 2.23193 415.882 2.14066 416.024 2.05915C416.284 1.91007 416.486 1.79442 416.51 1.78188C419.447 0.286136 423.638 2.60882 423.638 2.60882L623.143 111.735C623.143 111.735 629.235 114.487 629.603 121.893C630 129.847 629.993 293.655 629.993 293.655C629.993 293.655 630.696 300.202 626.422 303.201C626.266 303.31 626.105 303.416 625.936 303.516C624.244 304.51 622.271 304.644 620.457 304.42C617.365 304.038 614.734 302.614 614.734 302.614L418.07 192.742C418.07 192.742 413.037 190.95 412.808 184.469L412.733 8.29293C412.733 8.29293 412.441 4.14915 414.711 2.81713Z" fill="#F6F6FF"/>
<path fill-rule="evenodd" clip-rule="evenodd" d="M563.872 307.527L563.84 307.29C563.843 307.369 563.854 307.448 563.872 307.527Z" fill="#DDDDFC"/>
<path fill-rule="evenodd" clip-rule="evenodd" d="M563.838 307.276L563.84 307.29C563.839 307.285 563.84 307.281 563.839 307.276H563.838Z" fill="#DDDDFC"/>
<path fill-rule="evenodd" clip-rule="evenodd" d="M590.245 309.012L580.197 314.55C578.381 315.551 577.204 315.456 575.7 314.67L564.885 308.744C564.274 308.381 563.967 307.958 563.871 307.527L563.986 308.381C564.062 308.817 564.45 309.181 564.928 309.464L575.744 315.391C577.247 316.177 578.424 316.273 580.239 315.273L590.288 309.733C590.908 309.392 591.5 309.151 591.561 308.466L591.642 307.211H591.637C591.606 307.899 591.105 308.537 590.245 309.012Z" fill="#DDDDFC"/>
<path fill-rule="evenodd" clip-rule="evenodd" d="M544.037 296.521L544.004 296.284C544.008 296.362 544.02 296.442 544.037 296.521Z" fill="#DDDDFC"/>
<path fill-rule="evenodd" clip-rule="evenodd" d="M544.002 296.271L544.003 296.283V296.271H544.002Z" fill="#DDDDFC"/>
<path fill-rule="evenodd" clip-rule="evenodd" d="M570.408 298.006L560.361 303.545C558.546 304.546 557.368 304.45 555.864 303.664L545.049 297.737C544.438 297.376 544.132 296.952 544.035 296.522L544.15 297.375C544.227 297.812 544.613 298.175 545.092 298.458L555.909 304.386C557.411 305.171 558.588 305.268 560.403 304.266L570.452 298.727C571.071 298.385 571.665 298.146 571.724 297.46L571.805 296.205L571.801 296.205C571.77 296.894 571.269 297.532 570.408 298.006Z" fill="#DDDDFC"/>
<path fill-rule="evenodd" clip-rule="evenodd" d="M550.79 286.84L540.741 292.38C538.927 293.38 537.749 293.285 536.244 292.499L525.43 286.571C524.818 286.211 524.512 285.786 524.416 285.354L524.531 286.21C524.607 286.646 524.995 287.009 525.472 287.292L536.288 293.22C537.792 294.006 538.969 294.101 540.784 293.101L550.833 287.561C551.452 287.22 552.044 286.98 552.105 286.295L552.186 285.04H552.182C552.151 285.727 551.65 286.366 550.79 286.84Z" fill="#DDDDFC"/>
<path fill-rule="evenodd" clip-rule="evenodd" d="M505.276 273.785L505.244 273.547C505.248 273.627 505.259 273.706 505.276 273.785Z" fill="#DDDDFC"/>
<path fill-rule="evenodd" clip-rule="evenodd" d="M505.242 273.535L505.244 273.547V273.535H505.242Z" fill="#DDDDFC"/>
<path fill-rule="evenodd" clip-rule="evenodd" d="M531.651 275.269L521.603 280.808C519.787 281.809 518.61 281.713 517.107 280.928L506.291 275.001C505.68 274.638 505.373 274.215 505.277 273.785L505.392 274.638C505.468 275.075 505.856 275.438 506.335 275.721L517.15 281.649C518.653 282.434 519.831 282.531 521.646 281.53L531.695 275.991C532.313 275.649 532.906 275.408 532.967 274.724L533.048 273.468H533.043C533.012 274.157 532.511 274.795 531.651 275.269Z" fill="#DDDDFC"/>
<path fill-rule="evenodd" clip-rule="evenodd" d="M485.441 262.779L485.408 262.542C485.413 262.62 485.423 262.7 485.441 262.779Z" fill="#DDDDFC"/>
<path fill-rule="evenodd" clip-rule="evenodd" d="M485.406 262.528L485.408 262.542V262.528H485.406Z" fill="#DDDDFC"/>
<path fill-rule="evenodd" clip-rule="evenodd" d="M511.815 264.264L501.768 269.803C499.952 270.804 498.775 270.708 497.271 269.922L486.455 263.994C485.844 263.634 485.538 263.21 485.441 262.779L485.557 263.633C485.633 264.07 486.019 264.433 486.499 264.716L497.315 270.644C498.818 271.429 499.994 271.525 501.81 270.524L511.858 264.985C512.477 264.643 513.071 264.404 513.131 263.718L513.212 262.462L513.207 262.463C513.177 263.151 512.676 263.79 511.815 264.264Z" fill="#DDDDFC"/>
<path fill-rule="evenodd" clip-rule="evenodd" d="M492.193 253.098L482.145 258.637C480.331 259.639 479.153 259.542 477.649 258.757L466.833 252.829C466.223 252.468 465.915 252.043 465.82 251.612L465.935 252.468C466.011 252.905 466.399 253.267 466.877 253.55L477.692 259.477C479.196 260.263 480.373 260.36 482.189 259.359L492.237 253.819C492.857 253.479 493.449 253.237 493.509 252.553L493.591 251.297H493.586C493.555 251.985 493.054 252.623 492.193 253.098Z" fill="#DDDDFC"/>
<path fill-rule="evenodd" clip-rule="evenodd" d="M446.215 240.361L446.216 240.373C446.216 240.369 446.217 240.365 446.216 240.361H446.215Z" fill="#DDDDFC"/>
<path fill-rule="evenodd" clip-rule="evenodd" d="M472.623 242.096L462.575 247.635C460.76 248.636 459.583 248.539 458.078 247.754L447.263 241.827C446.653 241.466 446.346 241.041 446.25 240.611L446.365 241.466C446.439 241.902 446.828 242.265 447.307 242.548L458.122 248.475C459.625 249.261 460.803 249.357 462.618 248.356L472.666 242.817C473.286 242.475 473.877 242.235 473.938 241.55L474.021 240.294H474.016C473.985 240.983 473.483 241.621 472.623 242.096Z" fill="#DDDDFC"/>
<path fill-rule="evenodd" clip-rule="evenodd" d="M426.413 229.605L426.381 229.367C426.385 229.446 426.397 229.525 426.413 229.605Z" fill="#DDDDFC"/>
<path fill-rule="evenodd" clip-rule="evenodd" d="M426.379 229.354L426.38 229.368V229.354H426.379Z" fill="#DDDDFC"/>
<path fill-rule="evenodd" clip-rule="evenodd" d="M452.787 231.09L442.74 236.629C440.925 237.63 439.746 237.534 438.243 236.748L427.427 230.82C426.817 230.46 426.51 230.035 426.414 229.606L426.529 230.459C426.605 230.896 426.992 231.259 427.471 231.542L438.287 237.47C439.79 238.255 440.967 238.352 442.782 237.35L452.831 231.811C453.45 231.47 454.042 231.229 454.103 230.545L454.184 229.289L454.18 229.289C454.149 229.977 453.648 230.615 452.787 231.09Z" fill="#DDDDFC"/>
<path fill-rule="evenodd" clip-rule="evenodd" d="M433.167 219.924L423.118 225.464C421.304 226.465 420.126 226.369 418.621 225.583L407.805 219.656C407.195 219.295 406.889 218.87 406.793 218.439L406.908 219.295C406.983 219.73 407.372 220.093 407.849 220.376L418.665 226.304C420.167 227.09 421.346 227.185 423.161 226.185L433.208 220.645C433.828 220.304 434.421 220.064 434.481 219.379L434.562 218.124H434.559C434.528 218.811 434.027 219.45 433.167 219.924Z" fill="#DDDDFC"/>
<path fill-rule="evenodd" clip-rule="evenodd" d="M544.357 318.692L544.324 318.455C544.329 318.535 544.339 318.613 544.357 318.692Z" fill="#DDDDFC"/>
<path fill-rule="evenodd" clip-rule="evenodd" d="M544.324 318.442L544.325 318.455C544.325 318.45 544.326 318.446 544.325 318.442H544.324Z" fill="#DDDDFC"/>
<path fill-rule="evenodd" clip-rule="evenodd" d="M524.521 307.687L524.488 307.449C524.493 307.528 524.504 307.607 524.521 307.687Z" fill="#DDDDFC"/>
<path fill-rule="evenodd" clip-rule="evenodd" d="M524.488 307.436L524.49 307.449C524.491 307.445 524.49 307.44 524.49 307.436H524.488Z" fill="#DDDDFC"/>
<path fill-rule="evenodd" clip-rule="evenodd" d="M550.895 309.172L540.848 314.711C539.033 315.712 537.855 315.615 536.351 314.829L525.535 308.902C524.925 308.541 524.618 308.118 524.521 307.687L524.637 308.541C524.713 308.978 525.099 309.34 525.579 309.624L536.395 315.552C537.897 316.337 539.075 316.433 540.89 315.432L550.939 309.893C551.558 309.551 552.15 309.311 552.211 308.626L552.292 307.37L552.288 307.371C552.258 308.059 551.756 308.697 550.895 309.172Z" fill="#DDDDFC"/>
<path fill-rule="evenodd" clip-rule="evenodd" d="M531.276 298.006L521.228 303.545C519.413 304.546 518.235 304.45 516.731 303.664L505.915 297.736C505.305 297.376 504.999 296.951 504.902 296.521L505.017 297.375C505.092 297.812 505.48 298.175 505.959 298.457L516.774 304.385C518.277 305.172 519.456 305.267 521.271 304.266L531.319 298.727C531.938 298.386 532.532 298.145 532.591 297.46L532.673 296.205H532.668C532.637 296.893 532.136 297.532 531.276 298.006Z" fill="#DDDDFC"/>
<path fill-rule="evenodd" clip-rule="evenodd" d="M485.763 284.95L485.73 284.713C485.734 284.793 485.745 284.871 485.763 284.95Z" fill="#DDDDFC"/>
<path fill-rule="evenodd" clip-rule="evenodd" d="M485.729 284.7L485.73 284.713C485.73 284.708 485.731 284.704 485.73 284.7H485.729Z" fill="#DDDDFC"/>
<path fill-rule="evenodd" clip-rule="evenodd" d="M512.137 286.435L502.088 291.973C500.273 292.975 499.097 292.879 497.593 292.094L486.777 286.167C486.167 285.804 485.859 285.381 485.764 284.95L485.878 285.804C485.954 286.241 486.342 286.604 486.82 286.888L497.636 292.815C499.138 293.601 500.317 293.696 502.131 292.696L512.18 287.157C512.799 286.815 513.392 286.574 513.453 285.889L513.534 284.635H513.53C513.498 285.322 512.997 285.961 512.137 286.435Z" fill="#DDDDFC"/>
<path fill-rule="evenodd" clip-rule="evenodd" d="M465.926 273.945L465.895 273.708C465.899 273.786 465.91 273.866 465.926 273.945Z" fill="#DDDDFC"/>
<path fill-rule="evenodd" clip-rule="evenodd" d="M465.893 273.694L465.895 273.708C465.895 273.703 465.895 273.699 465.895 273.694H465.893Z" fill="#DDDDFC"/>
<path fill-rule="evenodd" clip-rule="evenodd" d="M492.3 275.429L482.252 280.969C480.437 281.97 479.26 281.873 477.756 281.088L466.939 275.16C466.33 274.799 466.022 274.375 465.926 273.945L466.041 274.798C466.117 275.236 466.504 275.599 466.984 275.881L477.799 281.809C479.302 282.595 480.48 282.691 482.295 281.69L492.343 276.15C492.962 275.809 493.555 275.569 493.615 274.884L493.696 273.628H493.692C493.662 274.317 493.16 274.955 492.3 275.429Z" fill="#DDDDFC"/>
<path fill-rule="evenodd" clip-rule="evenodd" d="M472.68 264.264L462.633 269.803C460.817 270.803 459.639 270.708 458.136 269.922L447.32 263.995C446.709 263.634 446.403 263.209 446.307 262.778L446.422 263.634C446.497 264.069 446.886 264.433 447.363 264.715L458.179 270.643C459.682 271.429 460.86 271.525 462.675 270.524L472.723 264.985C473.342 264.643 473.936 264.403 473.996 263.718L474.077 262.463H474.073C474.041 263.151 473.54 263.789 472.68 264.264Z" fill="#DDDDFC"/>
<path fill-rule="evenodd" clip-rule="evenodd" d="M426.736 251.777L426.703 251.539C426.708 251.618 426.718 251.698 426.736 251.777Z" fill="#DDDDFC"/>
<path fill-rule="evenodd" clip-rule="evenodd" d="M426.701 251.526L426.703 251.539C426.703 251.534 426.703 251.53 426.703 251.526H426.701Z" fill="#DDDDFC"/>
<path fill-rule="evenodd" clip-rule="evenodd" d="M453.109 253.261L443.062 258.799C441.247 259.801 440.069 259.704 438.566 258.92L427.749 252.992C427.139 252.63 426.832 252.207 426.736 251.776L426.852 252.63C426.927 253.067 427.315 253.43 427.792 253.713L438.609 259.641C440.111 260.427 441.29 260.522 443.105 259.521L453.153 253.983C453.772 253.641 454.365 253.4 454.426 252.715L454.507 251.46H454.502C454.472 252.148 453.97 252.786 453.109 253.261Z" fill="#DDDDFC"/>
<path fill-rule="evenodd" clip-rule="evenodd" d="M406.9 240.771L406.867 240.533C406.872 240.612 406.883 240.692 406.9 240.771Z" fill="#DDDDFC"/>
<path fill-rule="evenodd" clip-rule="evenodd" d="M406.865 240.52L406.867 240.533V240.52H406.865Z" fill="#DDDDFC"/>
<path fill-rule="evenodd" clip-rule="evenodd" d="M433.273 242.256L423.226 247.795C421.411 248.795 420.234 248.699 418.73 247.914L407.914 241.986C407.304 241.625 406.997 241.202 406.9 240.771L407.015 241.625C407.092 242.062 407.478 242.424 407.958 242.707L418.774 248.635C420.276 249.42 421.454 249.517 423.269 248.516L433.318 242.977C433.937 242.635 434.529 242.395 434.589 241.71L434.671 240.454L434.666 240.454C434.635 241.143 434.134 241.781 433.273 242.256Z" fill="#DDDDFC"/>
<path fill-rule="evenodd" clip-rule="evenodd" d="M523.275 329.858L523.242 329.62C523.246 329.7 523.257 329.778 523.275 329.858Z" fill="#DDDDFC"/>
<path fill-rule="evenodd" clip-rule="evenodd" d="M523.24 329.608L523.242 329.621C523.241 329.616 523.242 329.612 523.241 329.608H523.24Z" fill="#DDDDFC"/>
<path fill-rule="evenodd" clip-rule="evenodd" d="M503.439 318.852L503.406 318.615C503.411 318.693 503.422 318.773 503.439 318.852Z" fill="#DDDDFC"/>
<path fill-rule="evenodd" clip-rule="evenodd" d="M503.404 318.602L503.406 318.615V318.602H503.404Z" fill="#DDDDFC"/>
<path fill-rule="evenodd" clip-rule="evenodd" d="M529.813 320.337L519.765 325.876C517.95 326.877 516.772 326.781 515.269 325.995L504.452 320.068C503.842 319.707 503.535 319.283 503.439 318.853L503.554 319.706C503.63 320.143 504.017 320.506 504.497 320.789L515.313 326.717C516.815 327.502 517.992 327.599 519.808 326.597L529.856 321.058C530.475 320.716 531.068 320.477 531.129 319.791L531.21 318.536L531.205 318.536C531.174 319.225 530.673 319.863 529.813 320.337Z" fill="#DDDDFC"/>
<path fill-rule="evenodd" clip-rule="evenodd" d="M510.193 309.171L500.144 314.711C498.33 315.712 497.152 315.616 495.648 314.83L484.831 308.903C484.221 308.542 483.915 308.117 483.818 307.686L483.934 308.541C484.009 308.977 484.398 309.34 484.875 309.623L495.691 315.551C497.193 316.337 498.372 316.433 500.187 315.432L510.236 309.893C510.854 309.551 511.447 309.311 511.507 308.626L511.588 307.371H511.585C511.554 308.058 511.053 308.697 510.193 309.171Z" fill="#DDDDFC"/>
<path fill-rule="evenodd" clip-rule="evenodd" d="M464.679 296.116L464.646 295.878C464.65 295.959 464.662 296.037 464.679 296.116Z" fill="#DDDDFC"/>
<path fill-rule="evenodd" clip-rule="evenodd" d="M464.646 295.866L464.648 295.879C464.647 295.873 464.649 295.87 464.647 295.866H464.646Z" fill="#DDDDFC"/>
<path fill-rule="evenodd" clip-rule="evenodd" d="M491.053 297.6L481.005 303.14C479.19 304.141 478.013 304.045 476.508 303.26L465.693 297.332C465.083 296.969 464.775 296.546 464.68 296.116L464.794 296.969C464.869 297.406 465.257 297.77 465.737 298.053L476.551 303.98C478.055 304.766 479.233 304.862 481.048 303.861L491.096 298.322C491.715 297.98 492.308 297.74 492.369 297.055L492.45 295.8H492.445C492.414 296.488 491.913 297.127 491.053 297.6Z" fill="#DDDDFC"/>
<path fill-rule="evenodd" clip-rule="evenodd" d="M444.843 285.11L444.811 284.873C444.815 284.951 444.826 285.031 444.843 285.11Z" fill="#DDDDFC"/>
<path fill-rule="evenodd" clip-rule="evenodd" d="M444.811 284.86L444.812 284.873V284.86H444.811Z" fill="#DDDDFC"/>
<path fill-rule="evenodd" clip-rule="evenodd" d="M471.217 286.595L461.17 292.134C459.354 293.135 458.176 293.039 456.673 292.253L445.857 286.325C445.246 285.965 444.939 285.541 444.844 285.11L444.959 285.965C445.034 286.401 445.421 286.764 445.901 287.047L456.717 292.975C458.22 293.76 459.396 293.856 461.212 292.855L471.26 287.316C471.88 286.974 472.472 286.734 472.533 286.05L472.614 284.793L472.61 284.794C472.579 285.482 472.077 286.121 471.217 286.595Z" fill="#DDDDFC"/>
<path fill-rule="evenodd" clip-rule="evenodd" d="M451.598 275.429L441.549 280.969C439.735 281.97 438.558 281.873 437.053 281.088L426.237 275.16C425.627 274.8 425.32 274.375 425.225 273.944L425.339 274.799C425.415 275.235 425.803 275.599 426.28 275.881L437.097 281.809C438.599 282.595 439.777 282.691 441.593 281.69L451.64 276.15C452.26 275.809 452.853 275.569 452.913 274.885L452.993 273.628H452.99C452.959 274.316 452.458 274.955 451.598 275.429Z" fill="#DDDDFC"/>
<path fill-rule="evenodd" clip-rule="evenodd" d="M405.652 262.942L405.619 262.705C405.623 262.785 405.635 262.863 405.652 262.942Z" fill="#DDDDFC"/>
<path fill-rule="evenodd" clip-rule="evenodd" d="M405.617 262.691L405.619 262.705C405.619 262.7 405.62 262.696 405.619 262.691H405.617Z" fill="#DDDDFC"/>
<path fill-rule="evenodd" clip-rule="evenodd" d="M432.025 264.426L421.978 269.966C420.163 270.967 418.986 270.871 417.481 270.085L406.665 264.157C406.056 263.795 405.747 263.372 405.652 262.942L405.768 263.795C405.842 264.233 406.231 264.596 406.709 264.879L417.525 270.806C419.028 271.592 420.206 271.688 422.021 270.687L432.069 265.148C432.689 264.806 433.281 264.566 433.341 263.881L433.423 262.625H433.418C433.388 263.314 432.886 263.952 432.025 264.426Z" fill="#DDDDFC"/>
<path fill-rule="evenodd" clip-rule="evenodd" d="M385.818 251.937L385.785 251.699C385.79 251.777 385.8 251.857 385.818 251.937Z" fill="#DDDDFC"/>
<path fill-rule="evenodd" clip-rule="evenodd" d="M385.781 251.686L385.783 251.699V251.686H385.781Z" fill="#DDDDFC"/>
<path fill-rule="evenodd" clip-rule="evenodd" d="M412.189 253.421L402.142 258.96C400.327 259.961 399.149 259.865 397.646 259.079L386.829 253.151C386.219 252.791 385.911 252.367 385.816 251.937L385.931 252.791C386.006 253.227 386.394 253.59 386.873 253.872L397.688 259.801C399.191 260.586 400.369 260.682 402.185 259.681L412.233 254.142C412.852 253.8 413.445 253.561 413.504 252.876L413.585 251.62L413.582 251.621C413.551 252.308 413.049 252.947 412.189 253.421Z" fill="#DDDDFC"/>
<path fill-rule="evenodd" clip-rule="evenodd" d="M413.652 231.267L403.605 236.806C401.79 237.807 400.613 237.71 399.109 236.925L388.293 230.997C387.683 230.636 387.376 230.213 387.279 229.782L387.394 230.636C387.471 231.073 387.857 231.436 388.336 231.718L399.153 237.647C400.655 238.432 401.832 238.528 403.648 237.527L413.697 231.988C414.316 231.646 414.909 231.406 414.968 230.721L415.05 229.465L415.045 229.466C415.014 230.154 414.513 230.792 413.652 231.267Z" fill="#DDDDFC"/>
<path fill-rule="evenodd" clip-rule="evenodd" d="M392.568 242.433L382.521 247.972C380.707 248.973 379.529 248.876 378.025 248.091L367.21 242.163C366.598 241.802 366.291 241.378 366.195 240.948L366.311 241.802C366.386 242.239 366.774 242.602 367.253 242.885L378.069 248.812C379.572 249.597 380.749 249.694 382.564 248.693L392.613 243.153C393.233 242.812 393.824 242.572 393.884 241.887L393.965 240.631L393.961 240.632C393.931 241.32 393.429 241.958 392.568 242.433Z" fill="#DDDDFC"/>
<path fill-rule="evenodd" clip-rule="evenodd" d="M570.48 320.256L539.348 336.895C537.533 337.896 536.356 337.8 534.853 337.014L524.037 331.086C523.425 330.726 523.12 330.301 523.023 329.87L523.139 330.725C523.213 331.162 523.603 331.525 524.08 331.807L534.897 337.735C536.399 338.521 537.577 338.617 539.393 337.616L570.524 320.977C571.143 320.636 571.736 320.395 571.796 319.71L571.878 318.455H571.872C571.842 319.143 571.341 319.782 570.48 320.256Z" fill="#DDDDFC"/>
<path fill-rule="evenodd" clip-rule="evenodd" d="M503.761 341.023L503.729 340.786C503.733 340.866 503.744 340.944 503.761 341.023Z" fill="#DDDDFC"/>
<path fill-rule="evenodd" clip-rule="evenodd" d="M503.727 340.773L503.728 340.786C503.728 340.781 503.729 340.778 503.728 340.773H503.727Z" fill="#DDDDFC"/>
<path fill-rule="evenodd" clip-rule="evenodd" d="M530.135 342.508L520.087 348.047C518.272 349.048 517.095 348.952 515.592 348.167L504.775 342.24C504.165 341.877 503.857 341.454 503.762 341.024L503.876 341.877C503.952 342.314 504.34 342.677 504.817 342.961L515.634 348.888C517.137 349.673 518.315 349.77 520.13 348.769L530.178 343.23C530.798 342.888 531.39 342.648 531.451 341.963L531.532 340.708H531.528C531.496 341.396 530.995 342.034 530.135 342.508Z" fill="#DDDDFC"/>
<path fill-rule="evenodd" clip-rule="evenodd" d="M483.925 330.018L483.893 329.781C483.897 329.859 483.909 329.938 483.925 330.018Z" fill="#DDDDFC"/>
<path fill-rule="evenodd" clip-rule="evenodd" d="M483.891 329.767L483.892 329.78C483.894 329.775 483.892 329.771 483.892 329.767H483.891Z" fill="#DDDDFC"/>
<path fill-rule="evenodd" clip-rule="evenodd" d="M510.298 331.503L500.251 337.042C498.436 338.042 497.26 337.946 495.755 337.16L484.939 331.233C484.33 330.872 484.022 330.449 483.926 330.018L484.04 330.872C484.117 331.308 484.504 331.671 484.983 331.955L495.799 337.882C497.302 338.668 498.478 338.764 500.294 337.763L510.343 332.224C510.962 331.882 511.555 331.642 511.615 330.957L511.696 329.701L511.692 329.702C511.661 330.39 511.16 331.028 510.298 331.503Z" fill="#DDDDFC"/>
<path fill-rule="evenodd" clip-rule="evenodd" d="M490.678 320.337L480.631 325.876C478.816 326.877 477.638 326.781 476.135 325.995L465.318 320.068C464.708 319.707 464.4 319.282 464.305 318.852L464.42 319.707C464.495 320.143 464.883 320.506 465.362 320.788L476.177 326.716C477.68 327.503 478.858 327.598 480.674 326.597L490.722 321.058C491.34 320.717 491.934 320.476 491.995 319.792L492.076 318.536H492.071C492.04 319.224 491.539 319.863 490.678 320.337Z" fill="#DDDDFC"/>
<path fill-rule="evenodd" clip-rule="evenodd" d="M445.165 307.282L445.133 307.044C445.137 307.124 445.148 307.202 445.165 307.282Z" fill="#DDDDFC"/>
<path fill-rule="evenodd" clip-rule="evenodd" d="M445.133 307.031L445.134 307.044C445.134 307.04 445.134 307.035 445.134 307.031H445.133Z" fill="#DDDDFC"/>
<path fill-rule="evenodd" clip-rule="evenodd" d="M471.54 308.766L461.492 314.305C459.677 315.306 458.5 315.21 456.996 314.425L446.18 308.498C445.57 308.135 445.262 307.712 445.166 307.281L445.282 308.135C445.357 308.572 445.745 308.935 446.224 309.219L457.039 315.145C458.542 315.931 459.72 316.027 461.535 315.027L471.583 309.488C472.203 309.146 472.795 308.905 472.856 308.221L472.938 306.966H472.933C472.902 307.653 472.4 308.292 471.54 308.766Z" fill="#DDDDFC"/>
<path fill-rule="evenodd" clip-rule="evenodd" d="M425.33 296.276L425.297 296.039C425.301 296.117 425.313 296.197 425.33 296.276Z" fill="#DDDDFC"/>
<path fill-rule="evenodd" clip-rule="evenodd" d="M425.297 296.025L425.298 296.038V296.025H425.297Z" fill="#DDDDFC"/>
<path fill-rule="evenodd" clip-rule="evenodd" d="M451.702 297.761L441.656 303.3C439.841 304.3 438.664 304.204 437.159 303.418L426.344 297.491C425.734 297.13 425.427 296.707 425.33 296.276L425.445 297.129C425.521 297.566 425.908 297.929 426.387 298.213L437.203 304.141C438.706 304.926 439.883 305.022 441.698 304.021L451.747 298.482C452.366 298.14 452.958 297.9 453.019 297.214L453.1 295.959L453.096 295.96C453.065 296.648 452.563 297.286 451.702 297.761Z" fill="#DDDDFC"/>
<path fill-rule="evenodd" clip-rule="evenodd" d="M432.083 286.595L422.035 292.134C420.22 293.134 419.042 293.039 417.539 292.253L406.723 286.326C406.112 285.965 405.805 285.54 405.709 285.11L405.825 285.964C405.9 286.4 406.288 286.763 406.766 287.046L417.582 292.974C419.085 293.761 420.263 293.855 422.078 292.855L432.126 287.316C432.745 286.975 433.338 286.734 433.399 286.049L433.48 284.794H433.475C433.444 285.482 432.943 286.12 432.083 286.595Z" fill="#DDDDFC"/>
<path fill-rule="evenodd" clip-rule="evenodd" d="M386.138 274.107L386.105 273.87C386.109 273.95 386.12 274.028 386.138 274.107Z" fill="#DDDDFC"/>
<path fill-rule="evenodd" clip-rule="evenodd" d="M386.104 273.857L386.106 273.87C386.105 273.865 386.106 273.861 386.105 273.857H386.104Z" fill="#DDDDFC"/>
<path fill-rule="evenodd" clip-rule="evenodd" d="M412.512 275.592L402.464 281.131C400.648 282.132 399.472 282.036 397.967 281.251L387.152 275.324C386.542 274.961 386.234 274.538 386.139 274.108L386.253 274.961C386.329 275.398 386.717 275.761 387.194 276.045L398.011 281.972C399.514 282.757 400.691 282.854 402.507 281.853L412.555 276.314C413.174 275.972 413.767 275.732 413.828 275.047L413.909 273.792H413.904C413.873 274.48 413.372 275.118 412.512 275.592Z" fill="#DDDDFC"/>
<path fill-rule="evenodd" clip-rule="evenodd" d="M366.301 263.102L366.27 262.864C366.274 262.943 366.285 263.022 366.301 263.102Z" fill="#DDDDFC"/>
<path fill-rule="evenodd" clip-rule="evenodd" d="M366.268 262.852L366.27 262.865V262.852H366.268Z" fill="#DDDDFC"/>
<path fill-rule="evenodd" clip-rule="evenodd" d="M392.676 264.587L382.628 270.126C380.813 271.127 379.636 271.03 378.133 270.245L367.317 264.317C366.706 263.956 366.4 263.532 366.303 263.102L366.418 263.956C366.495 264.393 366.881 264.756 367.361 265.038L378.177 270.966C379.679 271.751 380.856 271.848 382.671 270.847L392.719 265.307C393.339 264.966 393.932 264.726 393.993 264.04L394.074 262.785H394.069C394.038 263.474 393.536 264.112 392.676 264.587Z" fill="#DDDDFC"/>
<path fill-rule="evenodd" clip-rule="evenodd" d="M373.055 253.421L363.007 258.96C361.192 259.961 360.015 259.865 358.51 259.079L347.695 253.152C347.084 252.792 346.777 252.366 346.682 251.935L346.797 252.791C346.872 253.226 347.26 253.59 347.739 253.872L358.554 259.8C360.057 260.587 361.235 260.682 363.051 259.681L373.099 254.142C373.717 253.8 374.311 253.56 374.37 252.876L374.451 251.621H374.447C374.416 252.308 373.915 252.946 373.055 253.421Z" fill="#DDDDFC"/>
<path fill-rule="evenodd" clip-rule="evenodd" d="M482.685 352.188L482.654 351.951C482.658 352.031 482.668 352.109 482.685 352.188Z" fill="#DDDDFC"/>
<path fill-rule="evenodd" clip-rule="evenodd" d="M482.65 351.938L482.653 351.951V351.938H482.65Z" fill="#DDDDFC"/>
<path fill-rule="evenodd" clip-rule="evenodd" d="M509.059 353.673L499.012 359.212C497.196 360.213 496.019 360.117 494.516 359.332L483.699 353.405C483.089 353.042 482.782 352.619 482.686 352.189L482.802 353.042C482.877 353.479 483.265 353.843 483.743 354.126L494.559 360.053C496.061 360.838 497.24 360.935 499.054 359.934L509.103 354.395C509.722 354.053 510.314 353.813 510.375 353.128L510.457 351.873H510.452C510.42 352.561 509.92 353.199 509.059 353.673Z" fill="#DDDDFC"/>
<path fill-rule="evenodd" clip-rule="evenodd" d="M462.849 341.183L462.816 340.945C462.821 341.024 462.832 341.103 462.849 341.183Z" fill="#DDDDFC"/>
<path fill-rule="evenodd" clip-rule="evenodd" d="M462.814 340.933L462.816 340.945C462.817 340.941 462.816 340.937 462.816 340.933H462.814Z" fill="#DDDDFC"/>
<path fill-rule="evenodd" clip-rule="evenodd" d="M489.223 342.668L479.174 348.207C477.36 349.207 476.183 349.111 474.679 348.325L463.863 342.398C463.253 342.037 462.946 341.614 462.85 341.183L462.964 342.037C463.041 342.473 463.428 342.836 463.907 343.12L474.723 349.047C476.225 349.832 477.402 349.929 479.217 348.928L489.267 343.389C489.885 343.047 490.479 342.807 490.538 342.122L490.62 340.866L490.616 340.867C490.584 341.555 490.083 342.193 489.223 342.668Z" fill="#DDDDFC"/>
<path fill-rule="evenodd" clip-rule="evenodd" d="M469.602 331.502L459.555 337.041C457.74 338.043 456.562 337.946 455.059 337.161L366.077 286.53C365.466 286.169 365.159 285.745 365.062 285.314L365.178 286.169C365.254 286.605 365.642 286.968 366.12 287.251L455.102 337.882C456.605 338.668 457.783 338.763 459.598 337.763L469.646 332.223C470.265 331.882 470.858 331.642 470.919 330.957L471 329.701H470.994C470.964 330.389 470.463 331.028 469.602 331.502Z" fill="#DDDDFC"/>
<path fill-rule="evenodd" clip-rule="evenodd" d="M424.089 318.446L424.057 318.209C424.062 318.289 424.073 318.368 424.089 318.446Z" fill="#DDDDFC"/>
<path fill-rule="evenodd" clip-rule="evenodd" d="M424.057 318.196L424.058 318.21C424.058 318.205 424.059 318.2 424.058 318.196H424.057Z" fill="#DDDDFC"/>
<path fill-rule="evenodd" clip-rule="evenodd" d="M404.253 307.441L404.221 307.204C404.225 307.282 404.237 307.362 404.253 307.441Z" fill="#DDDDFC"/>
<path fill-rule="evenodd" clip-rule="evenodd" d="M404.221 307.19L404.222 307.204V307.19H404.221Z" fill="#DDDDFC"/>
<path fill-rule="evenodd" clip-rule="evenodd" d="M365.062 285.272L365.031 285.035C365.034 285.115 365.045 285.193 365.062 285.272Z" fill="#DDDDFC"/>
<path fill-rule="evenodd" clip-rule="evenodd" d="M365.029 285.022L365.032 285.035C365.031 285.03 365.032 285.026 365.031 285.022H365.029Z" fill="#DDDDFC"/>
<path fill-rule="evenodd" clip-rule="evenodd" d="M345.228 274.267L345.195 274.029C345.199 274.108 345.211 274.187 345.228 274.267Z" fill="#DDDDFC"/>
<path fill-rule="evenodd" clip-rule="evenodd" d="M345.193 274.017L345.195 274.029V274.017H345.193Z" fill="#DDDDFC"/>
<path fill-rule="evenodd" clip-rule="evenodd" d="M371.599 275.752L361.551 281.291C359.736 282.292 358.559 282.195 357.056 281.409L346.24 275.482C345.63 275.121 345.323 274.698 345.227 274.267L345.341 275.12C345.418 275.558 345.804 275.92 346.283 276.204L357.1 282.132C358.602 282.917 359.779 283.013 361.594 282.013L371.642 276.473C372.262 276.131 372.855 275.892 372.915 275.205L372.997 273.951H372.993C372.961 274.639 372.46 275.277 371.599 275.752Z" fill="#DDDDFC"/>
<path fill-rule="evenodd" clip-rule="evenodd" d="M351.981 264.586L341.933 270.125C340.119 271.126 338.94 271.03 337.437 270.245L326.621 264.317C326.01 263.956 325.703 263.531 325.607 263.1L325.723 263.956C325.798 264.391 326.187 264.755 326.665 265.038L337.48 270.966C338.983 271.751 340.161 271.847 341.976 270.846L352.025 265.307C352.643 264.966 353.236 264.725 353.297 264.04L353.378 262.785H353.373C353.342 263.473 352.842 264.111 351.981 264.586Z" fill="#DDDDFC"/>
<path fill-rule="evenodd" clip-rule="evenodd" d="M415.804 13.3283L415.876 180.378C416.093 186.523 420.864 188.222 420.864 188.222L612.454 295.841C612.454 295.841 614.948 297.191 617.88 297.553C619.6 297.766 621.47 297.638 623.074 296.696C623.235 296.601 623.391 296.506 623.535 296.398C626.963 293.831 626.922 287.345 626.922 287.345V124.482C626.572 117.46 620.427 114.851 620.427 114.851L422.85 6.1436C422.85 6.1436 419.038 4.08147 417.373 5.89698C415.602 7.82745 415.804 9.00481 415.804 13.3283Z" fill="#C86DD7"/>
<path fill-rule="evenodd" clip-rule="evenodd" d="M595.893 334.399L602.766 330.462C603.832 329.853 604.461 328.386 603.869 327.346C604.541 327.428 605.168 327.79 605.541 328.392C606.187 329.435 605.553 330.944 604.468 331.565L597.596 335.501C596.96 335.864 596.219 335.89 595.583 335.648C595.13 335.475 594.727 335.172 594.458 334.739C594.447 334.72 594.439 334.7 594.428 334.681C594.919 334.745 595.434 334.662 595.893 334.399Z" fill="#B6B6DD"/>
<path fill-rule="evenodd" clip-rule="evenodd" d="M595.532 331.565L602.405 327.63C602.777 327.416 603.188 327.324 603.591 327.327C603.685 327.327 603.777 327.334 603.869 327.346C604.461 328.386 603.832 329.853 602.767 330.462L595.893 334.398C595.434 334.661 594.919 334.745 594.428 334.681C593.838 333.64 594.467 332.175 595.532 331.565Z" fill="#C7C7EA"/>
<path fill-rule="evenodd" clip-rule="evenodd" d="M468.459 47.2256V206.333L572.765 263.764V104.657L468.459 47.2256Z" fill="white"/>
<path fill-rule="evenodd" clip-rule="evenodd" d="M468.459 58.9463L572.765 116.377V174.102L468.459 116.67V58.9463Z" fill="#DDDDFC"/>
<path fill-rule="evenodd" clip-rule="evenodd" d="M481.016 156.166V171.491L501.712 182.826V167.712L481.016 156.166Z" fill="#DDDDFC"/>
<path fill-rule="evenodd" clip-rule="evenodd" d="M493.324 139.636V144.148L546.666 173.799V169.495L493.324 139.636Z" fill="#DDDDFC"/>
<path fill-rule="evenodd" clip-rule="evenodd" d="M502.34 152.414V156.166L537.848 175.67V172.128L502.34 152.414Z" fill="#DDDDFC"/>
<path fill-rule="evenodd" clip-rule="evenodd" d="M481.016 173.799V175.792L501.712 187.129V185.344L481.016 173.799Z" fill="#DDDDFC"/>
<path fill-rule="evenodd" clip-rule="evenodd" d="M481.016 178.546V180.541L497.478 189.653V187.869L481.016 178.546Z" fill="#DDDDFC"/>
<path fill-rule="evenodd" clip-rule="evenodd" d="M509.025 171.669V186.992L529.721 198.329V183.214L509.025 171.669Z" fill="#DDDDFC"/>
<path fill-rule="evenodd" clip-rule="evenodd" d="M509.025 189.302V191.296L529.721 202.632V200.847L509.025 189.302Z" fill="#DDDDFC"/>
<path fill-rule="evenodd" clip-rule="evenodd" d="M509.025 193.698V195.691L525.489 204.805V203.02L509.025 193.698Z" fill="#DDDDFC"/>
<path fill-rule="evenodd" clip-rule="evenodd" d="M536.941 187.172V202.496L557.637 213.831V198.717L536.941 187.172Z" fill="#DDDDFC"/>
<path fill-rule="evenodd" clip-rule="evenodd" d="M536.996 225.987V233.253L555.252 243.25V236.194L536.996 225.987Z" fill="#DDDDFC"/>
<path fill-rule="evenodd" clip-rule="evenodd" d="M536.941 204.805V206.798L557.637 218.134V216.35L536.941 204.805Z" fill="#DDDDFC"/>
<path fill-rule="evenodd" clip-rule="evenodd" d="M536.996 209.17V211.164L553.459 220.277V218.493L536.996 209.17Z" fill="#DDDDFC"/>
<path fill-rule="evenodd" clip-rule="evenodd" d="M536.996 225.987L538.308 225.348L556.341 235.552L555.252 236.194L536.996 225.987Z" fill="#E4E4F4"/>
<path fill-rule="evenodd" clip-rule="evenodd" d="M555.25 236.194L556.339 235.552V242.608L555.25 243.25V236.194Z" fill="#CECEEF"/>
<path fill-rule="evenodd" clip-rule="evenodd" d="M474.629 55.5216C475.478 54.8461 476.8 55.0387 477.581 55.9507C478.363 56.8626 478.31 58.15 477.461 58.8254C476.611 59.5008 475.29 59.3089 474.508 58.397C473.726 57.4843 473.78 56.1977 474.629 55.5216Z" fill="#E8F0F4"/>
<path fill-rule="evenodd" clip-rule="evenodd" d="M244.614 221.113C244.614 221.113 134.216 282.74 130.593 284.76C124.264 288.29 118.582 284.209 118.582 284.209L46.6154 244.222C46.6154 244.222 44.5376 243.309 44.4934 240.978C44.4912 240.966 44.4883 240.956 44.4883 240.945V244.834C44.4883 246.521 47.0495 247.937 47.0495 247.937L119.189 288.722C119.189 288.722 124.688 292.336 131.007 288.733C134.61 286.679 244.614 224.477 244.614 224.477C244.614 224.477 247.962 222.926 247.962 220.167V217.71C247.723 219.724 244.614 221.113 244.614 221.113Z" fill="#DDDDFC"/>
<path fill-rule="evenodd" clip-rule="evenodd" d="M243.478 212.886L175.272 174.243C175.272 174.243 169.346 170.054 162.548 173.881L46.7279 237.675C46.7279 237.675 44.4883 238.717 44.4883 240.905C44.4883 240.93 44.4912 240.953 44.4934 240.978C44.5376 243.309 46.6154 244.222 46.6154 244.222L118.582 284.209C118.582 284.209 124.264 288.29 130.593 284.761C134.216 282.74 244.614 221.113 244.614 221.113C244.614 221.113 247.723 219.724 247.962 217.71C248.237 215.408 243.478 212.886 243.478 212.886Z" fill="#F6F6FF"/>
<path fill-rule="evenodd" clip-rule="evenodd" d="M237.108 217.96L139.116 272.511L68.8633 233.444L166.253 178.384L237.108 217.96Z" fill="#C86DD7"/>
<path fill-rule="evenodd" clip-rule="evenodd" d="M87.0662 257.736C87.0662 256.071 89.3821 254.72 92.2388 254.72C95.0941 254.72 97.4114 256.071 97.4114 257.736C97.4114 259.403 95.0941 260.753 92.2388 260.753C89.3821 260.753 87.0662 259.403 87.0662 257.736ZM86.6582 257.736C86.6582 259.534 89.1563 260.991 92.2388 260.991C95.3199 260.991 97.8179 259.534 97.8179 257.736C97.8179 255.94 95.3199 254.483 92.2388 254.483C89.1563 254.483 86.6582 255.94 86.6582 257.736Z" fill="#D8D8D8"/>
<path fill-rule="evenodd" clip-rule="evenodd" d="M274.176 107.274L274.236 108.44C274.704 116.176 278.572 159.806 306.585 167.432C329.044 173.05 335.4 164.925 336.122 163.863L339.458 98.1284H273.713L274.176 107.261V107.274Z" fill="white"/>
<path fill-rule="evenodd" clip-rule="evenodd" d="M306.586 167.432C278.573 159.806 274.705 116.176 274.236 108.44L277.277 168.321C277.277 177.417 290.398 184.792 306.586 184.792C322.773 184.792 335.896 177.417 335.896 168.321L336.122 163.863C335.402 164.925 329.044 173.05 306.586 167.432Z" fill="#F6F6FF"/>
<path fill-rule="evenodd" clip-rule="evenodd" d="M306.586 178.86C291.122 178.86 278.418 172.228 276.977 163.751C276.888 164.281 276.838 164.816 276.838 165.359C276.838 174.592 290.157 182.078 306.586 182.078C323.016 182.078 336.335 174.592 336.335 165.359C336.335 164.816 336.285 164.281 336.195 163.751C334.754 172.228 322.05 178.86 306.586 178.86Z" fill="#F0F0FC"/>
<path fill-rule="evenodd" clip-rule="evenodd" d="M338.763 96.0084C338.763 105.995 324.358 114.091 306.586 114.091C288.815 114.091 274.408 105.995 274.408 96.0084C274.408 86.0215 288.815 77.9268 306.586 77.9268C324.358 77.9268 338.763 86.0215 338.763 96.0084Z" fill="white"/>
<path fill-rule="evenodd" clip-rule="evenodd" d="M306.585 119.224C289.559 119.224 275.571 111.922 273.985 102.586C273.885 103.17 273.83 103.761 273.83 104.358C273.83 114.524 288.495 122.767 306.585 122.767C324.674 122.767 339.341 114.524 339.341 104.358C339.341 103.761 339.285 103.17 339.186 102.586C337.6 111.922 323.612 119.224 306.585 119.224Z" fill="#F0F0FC"/>
<path fill-rule="evenodd" clip-rule="evenodd" d="M306.585 103.783C289.867 103.783 276.132 96.6127 274.576 87.4463C274.477 88.0191 274.424 88.599 274.424 89.1865C274.424 99.1679 288.822 107.261 306.585 107.261C324.348 107.261 338.748 99.1679 338.748 89.1865C338.748 88.599 338.693 88.0191 338.597 87.4463C337.038 96.6127 323.303 103.783 306.585 103.783Z" fill="#FCFCFC"/>
<path fill-rule="evenodd" clip-rule="evenodd" d="M307.236 113.725C319.717 114.851 327.338 113.093 331.975 110.725C335.023 108.786 337.378 106.497 338.825 103.977C338.973 103.593 339.024 103.367 339.024 103.367C339.024 103.367 339.06 103.386 339.126 103.418C339.989 101.739 340.461 99.9651 340.461 98.1284C340.461 87.6144 325.294 79.0918 306.586 79.0918C291.576 79.0918 278.855 84.58 274.408 92.1779C274.392 92.7071 274.083 111.145 307.236 113.725Z" fill="white"/>
<path fill-rule="evenodd" clip-rule="evenodd" d="M306.586 117.166C316.698 117.166 325.769 114.673 331.975 110.725C327.338 113.093 319.717 114.851 307.236 113.725C274.083 111.145 274.392 92.7076 274.408 92.1777C273.311 94.0503 272.711 96.0502 272.711 98.129C272.711 108.642 287.878 117.166 306.586 117.166Z" fill="#F6F6FF"/>
<path fill-rule="evenodd" clip-rule="evenodd" d="M338.593 89.4549C338.593 99.3891 324.263 107.443 306.585 107.443C288.907 107.443 274.576 99.3891 274.576 89.4549C274.576 79.52 288.907 71.4668 306.585 71.4668C324.263 71.4668 338.593 79.52 338.593 89.4549Z" fill="white"/>
<path fill-rule="evenodd" clip-rule="evenodd" d="M306.586 71.6765C289.056 71.6765 274.793 79.6516 274.793 89.4549C274.793 99.2582 289.056 107.233 306.586 107.233C324.117 107.233 338.378 99.2582 338.378 89.4549C338.378 79.6516 324.117 71.6765 306.586 71.6765ZM306.586 107.651C288.816 107.651 274.361 99.489 274.361 89.4549C274.361 79.4208 288.816 71.2578 306.586 71.2578C324.355 71.2578 338.811 79.4208 338.811 89.4549C338.811 99.489 324.355 107.651 306.586 107.651Z" fill="#F7F7F7"/>
<path fill-rule="evenodd" clip-rule="evenodd" d="M304.417 100.151H311.555C311.734 100.151 311.905 100.188 312.059 100.254C312.059 100.24 312.063 100.226 312.063 100.212C312.063 99.54 311.5 98.9946 310.807 98.9946H303.668C302.974 98.9946 302.412 99.54 302.412 100.212C302.412 100.712 302.722 101.139 303.165 101.327C303.187 100.675 303.738 100.151 304.417 100.151Z" fill="#DADEE0"/>
<path fill-rule="evenodd" clip-rule="evenodd" d="M310.806 101.43C311.485 101.43 312.035 100.907 312.059 100.254C311.904 100.188 311.733 100.151 311.554 100.151H304.416C303.737 100.151 303.186 100.674 303.164 101.327C303.318 101.393 303.488 101.43 303.667 101.43H310.806Z" fill="#E8E8E8"/>
<defs>
<linearGradient id="paint0_linear_1_4840" x1="669.208" y1="731.078" x2="669.208" y2="196.962" gradientUnits="userSpaceOnUse">
<stop stop-color="white"/>
<stop offset="1" stop-color="#DDDDFF"/>
</linearGradient>
</defs>
</svg>
