<svg width="44" height="48" viewBox="0 0 44 48" fill="none" xmlns="http://www.w3.org/2000/svg">
<path fill-rule="evenodd" clip-rule="evenodd" d="M0.750889 39.4219C3.02692 42.8399 8.749 41.4659 12.583 40.0559C21.9752 36.6039 34.2393 27.6659 40.4074 19.3919C44.7895 13.5139 44.3715 10.2679 43.2475 8.57794C42.5975 7.60194 41.2274 6.43994 38.3854 6.43994C33.2113 6.43994 26.2052 10.0339 21.7772 12.7599C17.4151 10.1879 10.641 6.86794 5.61295 6.86794C2.78292 6.86794 1.4129 7.99994 0.76489 8.95194C-0.159123 10.3039 -0.617129 12.6619 1.6029 16.5819C1.2889 17.1439 1.11089 17.7919 1.11089 18.4819C1.11089 20.6159 2.81092 22.3459 4.90494 22.3459C6.99897 22.3459 8.699 20.6159 8.699 18.4819C8.699 16.3479 7.00097 14.6179 4.90494 14.6179L4.48494 14.6419C3.31892 12.5239 3.33292 11.3419 3.59493 10.9579C3.84093 10.5939 4.59694 10.3799 5.61295 10.3799C7.20498 10.3799 9.283 10.8619 11.643 11.7299C13.9471 12.5799 16.3091 13.7199 18.4751 14.9119C13.9771 18.0079 10.527 20.9999 7.46498 24.1079C6.09896 25.5159 4.75494 27.0459 3.59093 28.6059C-0.791131 34.4859 -0.373125 37.7319 0.750889 39.4219ZM40.3914 10.5459C40.7634 11.1039 40.6714 13.2299 37.6594 17.2679C33.7853 22.4659 27.6052 27.5699 22.1872 31.1219C17.7731 34.0159 10.313 38.0499 5.61295 38.0499C4.59094 38.0499 3.85893 37.8319 3.60693 37.4539C2.86092 36.3319 4.44894 32.1599 10.085 26.4039C12.175 28.2659 14.4291 30.0459 16.7171 31.6679L16.7431 31.6859C17.9471 31.0219 19.0031 30.3879 20.0471 29.7259C17.3171 27.8779 14.7551 25.8819 12.605 23.9799C15.4651 21.3859 18.6491 18.9519 21.8112 16.8779C24.5652 18.6059 27.2212 20.5319 29.6113 22.4999C30.4853 21.7159 31.3393 20.9039 32.1533 20.0779C29.9993 18.2819 27.6392 16.5179 25.1092 14.8439C28.5333 12.8679 34.4793 9.94994 38.3854 9.94994C39.4074 9.94994 40.1394 10.1679 40.3914 10.5459Z" fill="#C86DD7"/>
<path fill-rule="evenodd" clip-rule="evenodd" d="M18.5195 8.342C17.3594 7.77 16.3334 7.308 15.3574 6.904C16.8974 2.744 19.1215 0 21.9995 0C24.8035 0 26.9876 2.602 28.5196 6.584C27.5356 7.006 26.5236 7.478 25.3756 8.062C24.1995 4.928 22.8595 3.512 21.9995 3.512C21.1155 3.512 19.7195 5.012 18.5195 8.342ZM21.9995 44.488C21.1415 44.488 19.7995 43.072 18.6235 39.938C17.4634 40.528 16.4614 40.994 15.4794 41.416C17.0134 45.398 19.1955 48 21.9995 48C24.8775 48 27.1016 45.256 28.6416 41.096C27.6716 40.694 26.6476 40.234 25.4796 39.658C24.2795 42.988 22.8835 44.488 21.9995 44.488ZM42.8538 29.644C42.8538 30.296 42.6958 30.91 42.4138 31.45C44.6158 35.35 44.1578 37.702 43.2358 39.05C42.5878 40.002 41.2178 41.134 38.3877 41.134C34.0457 41.134 28.3816 38.618 24.5295 36.544C25.6936 35.802 26.8876 34.99 27.8476 34.306C30.7216 35.732 35.1837 37.622 38.3877 37.622C39.4037 37.622 40.1578 37.408 40.4058 37.046C40.6638 36.668 40.6818 35.52 39.5757 33.472L39.0597 33.508C36.9637 33.508 35.2657 31.778 35.2657 29.644C35.2657 27.51 36.9637 25.78 39.0597 25.78C41.1558 25.78 42.8538 27.51 42.8538 29.644Z" fill="#FFC300"/>
</svg>
